<svg width="47" height="55" viewBox="0 0 47 55" fill="none" xmlns="http://www.w3.org/2000/svg">
<path fill-rule="evenodd" clip-rule="evenodd" d="M39.6414 38.2619C36.3087 42.5367 39.0041 41.5487 39.0041 41.5487C35.3227 46.7569 23.7243 54.3973 23.7243 54.3973C23.7243 54.3973 12.4448 46.7569 8.77385 41.5487C8.77385 41.5487 11.4618 42.5367 8.13844 38.2619C8.13844 38.2619 0.134168 29.3802 0.988656 8.51591C9.30332 7.65559 16.688 4.31934 23.7243 0C30.9061 4.31161 38.2764 7.63306 46.6678 8.51591C47.6681 29.3802 39.6414 38.2619 39.6414 38.2619ZM44.1026 15.3884C44.2318 12.8002 39.02 13.5956 39.02 13.5956C43.6575 10.1203 38.3827 7.93325 38.3827 7.93325C38.3827 7.93325 36.2709 7.52045 31.1969 5.52787C26.1228 3.5353 23.7243 7.6195 23.7243 7.6195C23.7243 7.6195 21.6189 3.5353 16.559 5.52787C11.4994 7.52045 9.25057 7.93325 9.25057 7.93325C9.25057 7.93325 4.13352 10.1203 8.615 13.5956C8.615 13.5956 3.56072 12.8002 3.68962 15.3884C3.81852 17.9766 -0.227829 34.1107 20.8489 49.0039C21.8203 49.6164 22.8208 50.2173 24.0113 50.7009C24.9441 50.2634 26.1266 49.6467 26.895 49.0039C48.0312 34.1107 43.9734 17.9766 44.1026 15.3884Z" fill="#E57320"/>
<path d="M39.02 13.5956C39.02 13.5956 44.2318 12.8002 44.1026 15.3884C44.0612 16.2179 44.4498 18.4386 44.3014 21.5638C44.9811 20.0406 46.4052 16.7126 46.6637 15.5865C46.7777 13.4023 46.7892 11.0473 46.6678 8.51591C38.2764 7.63306 30.9061 4.31161 23.7243 0C16.688 4.31934 9.30332 7.65559 0.988656 8.51591C0.885376 11.0377 0.911513 13.3845 1.03729 15.5617C1.53551 17.1345 2.88465 20.293 3.49694 21.6756C3.33415 18.4916 3.73142 16.2277 3.68962 15.3884C3.56072 12.8002 8.615 13.5956 8.615 13.5956C4.13352 10.1203 9.25057 7.93325 9.25057 7.93325C9.25057 7.93325 11.4994 7.52045 16.559 5.52787C21.6189 3.5353 23.7243 7.6195 23.7243 7.6195C23.7243 7.6195 26.1228 3.5353 31.1969 5.52787C36.2709 7.52045 38.3827 7.93325 38.3827 7.93325C38.3827 7.93325 43.6575 10.1203 39.02 13.5956Z" fill="white"/>
<path fill-rule="evenodd" clip-rule="evenodd" d="M3.88031 12.7887L2.25027 11.9107L2.25484 10.1471L3.88952 9.26157L5.51975 10.1396L5.51498 11.9031L3.88031 12.7887Z" fill="#101010"/>
<path fill-rule="evenodd" clip-rule="evenodd" d="M44.0844 12.7887L42.4544 11.9107L42.4589 10.1471L44.0936 9.26157L45.7239 10.1396L45.7191 11.9031L44.0844 12.7887Z" fill="#101010"/>
<path fill-rule="evenodd" clip-rule="evenodd" d="M23.8508 4.65081L22.593 3.97333L22.5965 2.61245L23.8579 1.92915L25.1159 2.60667L25.1122 3.9675L23.8508 4.65081Z" fill="#101010"/>
<path fill-rule="evenodd" clip-rule="evenodd" d="M23.9308 53.3151L23.0406 52.8356L23.0431 51.8724L23.9359 51.3888L24.8262 51.8684L24.8236 52.8315L23.9308 53.3151Z" fill="#101010"/>
<path d="M20.917 32.0099C18.7392 29.2118 18.1665 28.1326 17.3176 26.1655C16.4534 27.4282 14.6965 29.4368 19.1315 33.8288C21.5193 36.1935 23.5199 39.7697 21.5089 42.5868C24.7692 38.5633 23.7151 35.605 20.917 32.0099Z" fill="#E57320"/>
<path fill-rule="evenodd" clip-rule="evenodd" d="M15.3225 18.7026C14.8325 18.8405 14.524 18.957 14.5191 18.9589L13.683 19.2772L14.083 18.5186C16.3169 14.2819 21.419 13.2456 22.5996 13.0594C24.0789 12.826 24.5714 12.222 24.5456 11.2543L24.1901 9.88024C25.0128 10.306 25.4854 10.5161 25.5789 11.2543C25.6816 11.7742 25.5191 11.697 25.4151 11.9225C25.7484 11.5319 26.7024 10.9734 26.728 10.9597L27.1012 10.7218L27.0409 11.6397C27.0199 12.2634 26.8876 12.8504 27.0357 13.4501C27.1007 13.7136 27.4744 13.7325 27.4891 13.909C27.6449 13.8758 27.8278 13.8606 28.0332 13.8849C28.6457 13.9573 29.2272 14.3517 29.7615 15.0572C30.8175 16.4513 31.8836 16.8485 31.8927 16.8518L33.1186 17.2824L31.8251 17.4705C31.4273 17.5284 31.011 17.5479 30.6672 17.5514C31.0688 18.1028 31.3488 18.7425 31.4724 19.0528C31.4917 19.1012 31.5224 19.1427 31.5636 19.1762C31.7261 19.3084 33.6536 20.7485 34.4878 21.4033C34.789 21.6397 34.9798 21.9068 35.089 22.1862C34.8469 23.2212 34.8095 24.3683 34.4265 24.8235C33.9329 24.9929 33.841 25.0296 33.5336 25.1582C33.2337 25.5032 32.8964 25.6769 32.5287 25.6755C32.0253 26.1056 30.684 25.1752 31.0701 24.6859C30.9447 24.5078 29.4044 23.6531 29.17 23.6492C22.2356 23.5341 23.5724 20.9821 23.3544 20.6039C22.0094 23.1728 24.9143 25.1913 26.5136 26.3791C27.521 27.1273 30.2301 29.2469 31.2049 33.2119C32.6132 38.9398 27.2793 43.1161 24.2269 44.5927C28.993 33.8106 19.5961 36.034 15.5092 28.9779C15.0019 30.4602 14.6952 31.7635 15.6914 34.5251C10.009 26.9619 12.0638 22.1866 15.3225 18.7026Z" fill="white"/>
</svg>
